<svg width="56" height="56" viewBox="0 0 56 56" fill="none" xmlns="http://www.w3.org/2000/svg">
<path d="M55 28C55 42.9117 42.9117 55 28 55C13.0883 55 1 42.9117 1 28C1 13.0883 13.0883 1 28 1C42.9117 1 55 13.0883 55 28Z" fill="#007AFF" stroke="#007AFF" stroke-width="2"/>
<path fill-rule="evenodd" clip-rule="evenodd" d="M18.6286 28.0993C18.6349 28.6859 19.1154 29.1564 19.7021 29.1502L26.9491 29.0734L27.0259 36.3204C27.0322 36.907 27.5127 37.3775 28.0994 37.3713C28.686 37.3651 29.1565 36.8845 29.1502 36.2979L29.0734 29.0509L36.3205 28.974C36.9071 28.9678 37.3776 28.4872 37.3714 27.9006C37.3651 27.314 36.8846 26.8435 36.2979 26.8497L29.0509 26.9265L28.9741 19.6795C28.9678 19.0929 28.4873 18.6224 27.9006 18.6286C27.314 18.6348 26.8435 19.1154 26.8498 19.702L26.9266 26.9491L19.6795 27.0259C19.0929 27.0321 18.6224 27.5127 18.6286 28.0993Z" fill="white"/>
</svg>
